<?xml version="1.0" encoding="utf-8"?>
<!-- Uploaded to: SVG Repo, www.svgrepo.com, Generator: SVG Repo Mixer Tools -->
<svg width="800px" height="800px" viewBox="0 0 1024 1024" class="icon"  version="1.1" xmlns="http://www.w3.org/2000/svg"><path d="M395.6 254.7H249.3v-135c0-24 19.5-43.5 43.5-43.5h59.3c24 0 43.5 19.5 43.5 43.5v135z" fill="#B6CDEF" /><path d="M395.6 269.7H249.3c-8.3 0-15-6.7-15-15v-135c0-32.3 26.2-58.5 58.5-58.5h59.3c32.3 0 58.5 26.2 58.5 58.5v135c0 8.3-6.8 15-15 15z m-131.3-30h116.3v-120c0-15.7-12.8-28.5-28.5-28.5h-59.3c-15.7 0-28.5 12.8-28.5 28.5v120z" fill="#0F53A8" /><path d="M776.7 266.8H630.4V75.3c0-24 19.5-43.5 43.5-43.5h59.3c24 0 43.5 19.5 43.5 43.5v191.5z" fill="#B6CDEF" /><path d="M776.7 281.8H630.4c-8.3 0-15-6.7-15-15V75.3c0-32.3 26.2-58.5 58.5-58.5h59.3c32.3 0 58.5 26.2 58.5 58.5v191.6c0 8.2-6.7 14.9-15 14.9z m-131.3-30h116.3V75.3c0-15.7-12.8-28.5-28.5-28.5h-59.3c-15.7 0-28.5 12.8-28.5 28.5v176.5z" fill="#0F53A8" /><path d="M245 914.2h-99.1c-30.6 0-55.3-24.8-55.3-55.3V721.5c0-30.6 24.8-55.3 55.3-55.3H245c2.1 0 3.8 1.7 3.8 3.8v240.4c0 2.1-1.7 3.8-3.8 3.8z" fill="#B6CDEF" /><path d="M245 929.2h-99.1c-38.8 0-70.3-31.5-70.3-70.3V721.5c0-38.8 31.5-70.3 70.3-70.3H245c10.4 0 18.8 8.4 18.8 18.8v240.4c0 10.4-8.4 18.8-18.8 18.8z m-99.1-248.1c-22.2 0-40.3 18.1-40.3 40.3v137.4c0 22.2 18.1 40.3 40.3 40.3h87.9v-218h-87.9z" fill="#0F53A8" /><path d="M880.1 914.2H781c-2.1 0-3.8-1.7-3.8-3.8V669.9c0-2.1 1.7-3.8 3.8-3.8h99.1c30.6 0 55.3 24.8 55.3 55.3v137.4c0.1 30.6-24.7 55.4-55.3 55.4z" fill="#B6CDEF" /><path d="M880.1 929.2H781c-10.4 0-18.8-8.4-18.8-18.8V669.9c0-10.4 8.4-18.8 18.8-18.8h99.1c38.8 0 70.3 31.5 70.3 70.3v137.4c0.1 38.8-31.5 70.4-70.3 70.4z m-87.9-30h87.9c22.2 0 40.3-18.1 40.3-40.3V721.5c0-22.2-18.1-40.3-40.3-40.3h-87.9v218z" fill="#0F53A8" /><path d="M787.7 991.8H238.3c-36.6 0-66.2-29.7-66.2-66.2V336.1c0-31.6 25.6-57.2 57.2-57.2h567.5c31.6 0 57.2 25.6 57.2 57.2v589.5c-0.1 36.6-29.8 66.2-66.3 66.2z" fill="#B6CDEF" /><path d="M787.7 1006.8H238.3c-44.8 0-81.2-36.4-81.2-81.2V336.1c0-39.8 32.4-72.2 72.2-72.2h567.5c39.8 0 72.2 32.4 72.2 72.2v589.5c-0.1 44.8-36.5 81.2-81.3 81.2zM229.3 293.9c-23.2 0-42.2 18.9-42.2 42.2v589.5c0 28.2 23 51.2 51.2 51.2h549.3c28.2 0 51.2-23 51.2-51.2V336.1c0-23.2-18.9-42.2-42.2-42.2H229.3z" fill="#0F53A8" /><path d="M849.4 406H176.6c-26.9 0-48.8-21.8-48.8-48.8V202.3c0-26.9 21.8-48.8 48.8-48.8h672.7c26.9 0 48.8 21.8 48.8 48.8v154.9c0 27-21.8 48.8-48.7 48.8z" fill="#89B7F5" /><path d="M849.4 421H176.6c-35.2 0-63.8-28.6-63.8-63.8V202.3c0-35.2 28.6-63.8 63.8-63.8h672.7c35.2 0 63.8 28.6 63.8 63.8v154.9c0 35.2-28.6 63.8-63.7 63.8zM176.6 168.5c-18.6 0-33.8 15.2-33.8 33.8v154.9c0 18.6 15.2 33.8 33.8 33.8h672.7c18.6 0 33.8-15.2 33.8-33.8V202.3c0-18.6-15.2-33.8-33.8-33.8H176.6z" fill="#0F53A8" /><path d="M513 484.5c-29.1 0-52.8-23.7-52.8-52.8v-66.5c0-29.1 23.7-52.8 52.8-52.8 29.1 0 52.8 23.7 52.8 52.8v66.5c0 29.1-23.7 52.8-52.8 52.8z m0-142.2c-12.6 0-22.8 10.2-22.8 22.8v66.5c0 12.6 10.2 22.8 22.8 22.8 12.6 0 22.8-10.2 22.8-22.8v-66.5c0-12.5-10.2-22.8-22.8-22.8z" fill="#0F53A8" /><path d="M641.9 914.2H384.1c-34.1 0-61.7-27.6-61.7-61.7V635.1c0-34.1 27.6-61.7 61.7-61.7h257.8c34.1 0 61.7 27.6 61.7 61.7v217.4c0 34.1-27.6 61.7-61.7 61.7z" fill="#89B7F5" /><path d="M641.9 929.2H384.1c-42.3 0-76.7-34.4-76.7-76.7V635.1c0-42.3 34.4-76.7 76.7-76.7h257.8c42.3 0 76.7 34.4 76.7 76.7v217.4c0 42.3-34.4 76.7-76.7 76.7zM384.1 588.4c-25.7 0-46.7 20.9-46.7 46.7v217.4c0 25.7 20.9 46.7 46.7 46.7h257.8c25.7 0 46.7-20.9 46.7-46.7V635.1c0-25.7-20.9-46.7-46.7-46.7H384.1z" fill="#0F53A8" /><path d="M703.6 693.2H322.4c-8.3 0-15-6.7-15-15s6.7-15 15-15h381.1c8.3 0 15 6.7 15 15s-6.6 15-14.9 15zM475.2 362.7h75.6V431h-75.6z" fill="#0F53A8" /></svg>